<?xml version="1.0" encoding="utf-8"?>
<!-- Generator: Adobe Illustrator 21.0.0, SVG Export Plug-In . SVG Version: 6.00 Build 0)  -->
<svg version="1.1" id="behance" xmlns="http://www.w3.org/2000/svg" xmlns:xlink="http://www.w3.org/1999/xlink" x="0px" y="0px"
	 width="320.7px" height="320.7px" viewBox="0 0 320.7 320.7" style="enable-background:new 0 0 320.7 320.7;" xml:space="preserve"
	>
<style type="text/css">
	.st0{fill:#26BBB3;}
</style>
<path class="st0" d="M267.7,168.3h-58.6c0,0,3.8-27.5,31.4-27.5C268.1,140.8,267.7,168.3,267.7,168.3z"/>
<path class="st0" d="M282.8,0h-245C16.9,0,0,16.9,0,37.8v245c0,20.9,16.9,37.8,37.8,37.8h245c20.9,0,37.8-16.9,37.8-37.8v-245
	C320.7,16.9,303.7,0,282.8,0z M201.5,79.8h73.6v22h-73.6V79.8z M164.3,195c0,54.4-56.7,52.7-56.7,52.7H14.8V69.3h92.8
	c28.2,0,50.5,15.6,50.5,47.5c0,31.9-27.2,33.9-27.2,33.9C166.7,150.7,164.3,195,164.3,195z M301.9,192.1h-92.4
	c0,33.1,31.4,31,31.4,31c29.6,0,28.6-19.2,28.6-19.2h31.4c0,50.9-61,47.4-61,47.4c-73.2,0-68.5-68.2-68.5-68.2s-0.1-68.5,68.5-68.5
	C312,114.6,301.9,192.1,301.9,192.1z M107.6,168.3H55.7v47.7h49.5c7.4-0.2,21.2-2.5,21.2-23.2C126.4,168,107.6,168.3,107.6,168.3z
	 M120.2,119.5c0-18.6-12.6-18.6-12.6-18.6H55.7v39.8h48.7C112.8,140.8,120.2,138.1,120.2,119.5z"/>
</svg>
