<?xml version="1.0" encoding="utf-8"?>
<!-- Generator: Adobe Illustrator 21.0.0, SVG Export Plug-In . SVG Version: 6.00 Build 0)  -->
<svg version="1.1" id="Layer_1" xmlns="http://www.w3.org/2000/svg" xmlns:xlink="http://www.w3.org/1999/xlink" x="0px" y="0px"
	 width="49.7px" height="49.7px" viewBox="0 0 49.7 49.7" style="enable-background:new 0 0 49.7 49.7;" xml:space="preserve">
<style type="text/css">
	.st0{fill:#29BCB3;}
</style>
<g>
	<g>
		<circle class="st0" cx="24.8" cy="24.8" r="6.5"/>
		<path class="st0" d="M38.9,0H10.8C4.8,0-0.1,4.9-0.1,10.9v27.9c0,6,4.8,10.9,10.8,10.9h28.1c6,0,10.8-4.9,10.8-10.9V10.9
			C49.7,4.9,44.9,0,38.9,0z M42.9,33c0,5.8-4.7,10.5-10.5,10.5H17.2c-5.8,0-10.5-4.7-10.5-10.5V16.9c0-5.8,4.7-10.5,10.5-10.5h15.1
			c5.8,0,10.5,4.7,10.5,10.5V33z M32.3,9.1H17.2c-2.1,0-4,0.8-5.5,2.3c-1.5,1.5-2.3,3.4-2.3,5.5V33c0,2.1,0.8,4,2.3,5.5
			c1.5,1.5,3.4,2.3,5.5,2.3h15.1c2.1,0,4-0.8,5.5-2.3c1.5-1.5,2.3-3.4,2.3-5.5V16.9c0-2.1-0.8-4-2.3-5.5C36.3,10,34.4,9.1,32.3,9.1z
			 M24.8,34.8c-5.5,0-10-4.5-10-10c0-5.5,4.5-10,10-10c5.5,0,10,4.5,10,10C34.8,30.3,30.3,34.8,24.8,34.8z M34.9,17.1
			c-1.3,0-2.4-1.1-2.4-2.4c0-1.3,1.1-2.4,2.4-2.4c1.3,0,2.4,1.1,2.4,2.4C37.3,16,36.3,17.1,34.9,17.1z"/>
	</g>
</g>
</svg>
