<?xml version="1.0" encoding="utf-8"?>
<!-- Generator: Adobe Illustrator 21.0.0, SVG Export Plug-In . SVG Version: 6.00 Build 0)  -->
<svg version="1.1" id="Layer_1" xmlns="http://www.w3.org/2000/svg" xmlns:xlink="http://www.w3.org/1999/xlink" x="0px" y="0px"
	 width="232.5px" height="150px" viewBox="0 0 232.5 150" style="enable-background:new 0 0 232.5 150;" xml:space="preserve">
<style type="text/css">
	.st0{fill:#231F20;}
</style>
<g>
	<g>
		<path class="st0" d="M11.4,7.2h26.2l38.8,114.1L115,7.2h26v135h-17.5V62.5c0-2.8,0.1-7.3,0.2-13.7c0.1-6.4,0.2-13.2,0.2-20.5
			L85.4,142.2H67.3L28.4,28.3v4.1c0,3.3,0.1,8.3,0.3,15.1c0.2,6.8,0.3,11.7,0.3,14.9v79.7H11.4V7.2z"/>
		<path class="st0" d="M123.6,7.2H184c11.9,0,21.6,3.4,28.9,10.2c7.3,6.8,11,16.3,11,28.5c0,10.5-3.3,19.7-9.8,27.5
			c-6.6,7.8-16.6,11.7-30.1,11.7h-42.2v57.1h-18.3V7.2z M194.5,25.8c-4-1.9-9.5-2.8-16.5-2.8h-36.1v46.8H178
			c8.2,0,14.8-1.7,19.8-5.2c5.1-3.5,7.6-9.7,7.6-18.5C205.5,36.1,201.8,29.3,194.5,25.8z"/>
	</g>
	<circle class="st0" cx="202" cy="132.9" r="9.3"/>
	<circle class="st0" cx="164.1" cy="132.9" r="9.3"/>
</g>
</svg>
