<?xml version="1.0" encoding="utf-8"?>
<!-- Generator: Adobe Illustrator 21.0.0, SVG Export Plug-In . SVG Version: 6.00 Build 0)  -->
<svg version="1.1" id="Layer_1" xmlns="http://www.w3.org/2000/svg" xmlns:xlink="http://www.w3.org/1999/xlink" x="0px" y="0px"
	 width="600px" height="600px" viewBox="0 0 600 600" style="enable-background:new 0 0 600 600;" xml:space="preserve">
<style type="text/css">
	.st0{fill:#FFFFFF;}
	.st1{fill:#26BBB3;}
</style>
<g>
	<circle class="st0" cx="300.1" cy="299.5" r="395.9"/>
	<g>
		<g>
			<path class="st1" d="M329,268.9v200.7h0V263.6C329,265.6,329,267.3,329,268.9z"/>
			<path class="st1" d="M554.1,155.1c-18.5-17-42.8-25.6-72.9-25.6H307.5L210.4,417l-97.8-287.5h-66v340h44V268.9
				c0-8-0.2-20.6-0.7-37.6c-0.5-17-0.7-29.8-0.7-38.1v-10.4l98,286.8h45.6L329,185.4v284.1h46.1V325.8h106.2
				c34,0,59.3-9.8,75.8-29.5c16.5-19.7,24.8-42.8,24.8-69.3C581.8,196.1,572.6,172.1,554.1,155.1z M516.1,273.7
				c-12.8,8.8-29.4,13.2-50,13.2h-91V169.1h91c17.6,0,31.5,2.4,41.6,7.2c18.4,9,27.6,25.9,27.6,50.9
				C535.3,249.4,528.9,264.9,516.1,273.7z"/>
		</g>
		<circle class="st1" cx="526.5" cy="446.2" r="23.3"/>
		<circle class="st1" cx="431" cy="446.2" r="23.3"/>
	</g>
</g>
</svg>
