<?xml version="1.0" encoding="utf-8"?>
<!-- Generator: Adobe Illustrator 21.0.0, SVG Export Plug-In . SVG Version: 6.00 Build 0)  -->
<svg version="1.1" id="Layer_1" xmlns="http://www.w3.org/2000/svg" xmlns:xlink="http://www.w3.org/1999/xlink" x="0px" y="0px"
	 width="261.8px" height="256px" viewBox="0 0 261.8 256" style="enable-background:new 0 0 261.8 256;" xml:space="preserve">
<style type="text/css">
	.st0{fill:#002533;}
	.st1{fill:#5CCCF5;}
	.st2{fill:none;stroke:url(#SVGID_1_);stroke-miterlimit:10;}
</style>
<image style="display:none;overflow:visible;" width="227" height="222" xlink:href="CF6F644239CBBA6F.jpg"  transform="matrix(1.1531 0 0 1.1531 -4.880000e-04 0)">
</image>
<g>
	<rect x="12" y="12" class="st0" width="238" height="233"/>
	<path class="st1" d="M238,24v209H24V24H238 M262,0h-24H24H0v24v209v24h24h214h24v-24V24V0L262,0z"/>
</g>
<linearGradient id="SVGID_1_" gradientUnits="userSpaceOnUse" x1="92.5" y1="179" x2="92.5" y2="179">
	<stop  offset="5.000000e-03" style="stop-color:#F9C45E"/>
	<stop  offset="1" style="stop-color:#F89C1E"/>
</linearGradient>
<path class="st2" d="M92.5,179"/>
<g>
	<path class="st1" d="M135.8,106.9c0.4-13.3-2.9-17.7-5.9-22.7c-3.3-5.3-8.5-11.8-24.4-14.2c-15.9-2.4-41.5,0-41.5,0v107.4h23.2V143
		c0,0,0.3-0.1,0.9-0.2c1.4,0.1,2.9,0.2,4.3,0.2c19,0,35.1-9.9,41-23.6c0.8-1.6,1.4-3.4,1.8-5.7c0.4-2,0.6-4,0.6-6
		C135.9,107.4,135.8,107.2,135.8,106.9z M95,126.8l-7.9-0.3V85.4L95,85c11.2,0,20.2,10.6,20.2,22.1S106.2,126.8,95,126.8z"/>
	<path class="st1" d="M194,99c0,0-7.9-6-21.1-5.8c-13.1,0.2-30.3,7.8-30.3,25.2c0,15.3,9.2,20,21.6,25.8
		c18.7,8.8,16.6,17.4,3.4,17.3c-9.4,0-24.9-8.8-24.9-8.8v18.9c0,0,7.6,7.2,24.9,7.3c17.2,0.2,30.2-9.2,30.2-25.6
		c0-17.4-18.4-24.5-25.8-27.6c-15.7-6.7-9.6-15.3,1.1-15.3c9.5,0,20.9,6.6,20.9,6.6V99z"/>
</g>
</svg>
