<?xml version="1.0" encoding="utf-8"?>
<!-- Generator: Adobe Illustrator 21.0.0, SVG Export Plug-In . SVG Version: 6.00 Build 0)  -->
<svg version="1.1" id="Layer_1" xmlns="http://www.w3.org/2000/svg" xmlns:xlink="http://www.w3.org/1999/xlink" x="0px" y="0px"
	 width="479px" height="479px" viewBox="0 0 479 479" style="enable-background:new 0 0 479 479;" xml:space="preserve">
<style type="text/css">
	.st0{fill:#FB2EC1;}
	.st1{fill:#2E001E;}
</style>
<path class="st0" d="M127.9,231.8C127.9,231.8,127.9,231.8,127.9,231.8L127.9,231.8L127.9,231.8z"/>
<path class="st0" d="M459.8,453.5c0,5.6-2.3,5.9-6.7,5.9c-71.3-0.1-142.5-0.1-213.7-0.1c-71,0-142.1-0.1-213.1,0.1
	c-5.7,0-7.4-1.3-7.4-7.2c0.2-141.5,0.2-283,0.1-424.5c0-4.8,1.1-6.5,6.3-6.5c142.9,0.1,285.8,0.1,428.6,0c4.7,0,6,1.3,6,6
	C459.6,169.4,459.6,311.5,459.8,453.5z"/>
<g>
	<path class="st0" d="M0,0v478.7c0.1,0.1,0.2,0.2,0.3,0.3H479V0H0z M459.9,75h-0.2c-0.1,110,0,220,0.1,330c0,3,0,6,0,9
		c0,2.3,0,4.6,0,6.8v1.6h0.2v36.9h-4.3c-0.8,0.1-1.6,0.1-2.6,0.1c-71.3-0.1-142.5-0.1-213.7-0.1c-71,0-142.1-0.1-213.1,0.1
		c-1,0-1.9,0-2.7-0.1h-4.5v-4.1c-0.2-0.8-0.2-1.8-0.2-3c0-11.6,0-24.2,0-37.5c0-2.9,0-5.8,0-8.6c0-8.7,0-17.8,0-27
		c0-3.8,0-7.7,0-11.5c0-22.1,0-44.2,0.1-66.3c0-24.3,0-48.7,0-73c0-14.1,0-28.3,0-42.4v-1.5c0-52.2,0-104.5-0.1-156.7
		c0-1,0-1.8,0.1-2.5V21h19.1v0.3c130.7,0.1,261.4,0.1,392,0c4,0,8,0,11.9,0c3.9,0,7.9,0,11.8,0c0.7,0,1.3,0,1.8,0.1h4.3V75z"/>
	<path class="st1" d="M238.4,117.9c-1.1,0-2.3,0-3.4,0.1C236.1,117.9,237.2,117.9,238.4,117.9c0.2,0,0.3,0,0.5,0H238.4z
		 M212.7,117.9c-0.7,0-1.3,0-1.9,0.1C211.3,117.9,212,117.9,212.7,117.9c0.5,0,1,0,1.5,0C213.6,117.9,213.1,117.9,212.7,117.9z
		 M166.1,249.2L166.1,249.2c0.1,0.1,0.1,0.3,0.2,0.4C166.3,249.4,166.2,249.3,166.1,249.2z M133.4,203.1c-5-9.9-10-19.9-15-29.8
		C123.4,183.2,128.4,193.2,133.4,203.1c0.2,0.5,0.5,0.9,0.7,1.4C133.9,204,133.6,203.6,133.4,203.1z M129,329.1
		c-0.1,0.2-0.2,0.4-0.3,0.6C128.8,329.5,128.9,329.3,129,329.1c1.3-2.8,2.6-5.6,3.9-8.4C131.6,323.5,130.3,326.3,129,329.1z
		 M127.8,331.1c0.3-0.4,0.7-0.9,0.9-1.4C128.5,330.2,128.2,330.7,127.8,331.1z M94.6,333.6c-0.4,0-0.8,0-1.1,0
		C93.8,333.6,94.2,333.6,94.6,333.6c2.5,0,5.1-0.1,7.6-0.1C99.6,333.6,97.1,333.6,94.6,333.6z"/>
	<path class="st1" d="M459.9,75h-0.2c-0.1,110,0,220,0.1,330C459.7,272,459.9,75,459.9,75z"/>
	<path class="st1" d="M19,186c0,58,0,123.5-0.1,181.7c0-22.1,0-44.2,0.1-66.3c0-24.3,0-48.7,0-73C19,214.2,19,200.1,19,186z
		 M38.1,21v0.3c130.7,0.1,261.4,0.1,392,0C286,21.4,38.1,21,38.1,21z"/>
	<path class="st1" d="M459.9,75V21.4h-4.3c-0.5-0.1-1.1-0.1-1.8-0.1c-3.8,0-7.8,0-11.8,0c-3.9,0-7.8,0-11.9,0
		c-130.7,0.1-261.3,0.1-392,0V21H19.1v4.2C19,25.6,19,96.2,19,184.5v1.5c0,14.1,0,28.3,0,42.4c0,24.3,0,48.7,0,73
		c0,34.9,0,69.9-0.1,104.8c0,2.9,0,5.8,0,8.6c0,13.3,0,25.9,0,37.5c0,1.2,0.1,2.2,0.2,3v4.1h4.5c0.8,0.1,1.7,0.1,2.7,0.1
		c71-0.2,142.1-0.1,213.1-0.1c71.3,0,142.5,0,213.7,0.1c1,0,1.8,0,2.6-0.1h4.3v-36.9h-0.2v-1.6c0-2.3,0-4.6,0-6.8c0-3,0-6,0-9
		c-0.1-110-0.1-220-0.1-330H459.9z M245.9,332.6c-0.1,0.1-0.2,0.2-0.4,0.3c-0.3,0.2-0.7,0.3-1.1,0.4c-0.3,0-0.6,0.1-0.9,0.1
		c-0.2,0-0.4,0-0.5,0c-0.2,0-0.4,0-0.6,0c-0.7,0-1.4,0-2.3,0c-1.4,0-2.8,0-4.2,0c-2.2,0-4.4,0-6.6,0c-5.4,0-10.8,0-16.2,0.1
		c-0.9,0-1.7,0-2.4-0.2c-0.7-0.1-1.3-0.3-1.9-0.6c-0.4-0.2-0.7-0.4-1.1-0.6c-0.3-0.2-0.6-0.5-0.9-0.8c0,0-0.1-0.1-0.1-0.1
		c0,0-0.1-0.1-0.1-0.1c-0.1-0.1-0.1-0.1-0.2-0.2c-0.1-0.2-0.3-0.3-0.4-0.5c-0.5-0.7-1-1.5-1.5-2.5c-3-6.3-6-12.6-8.9-18.9
		c-3-6.3-6-12.6-9-18.8c-6-12.5-12.1-25.1-18.1-37.6c0-0.1-0.1-0.2-0.2-0.3c-0.1-0.2-0.2-0.4-0.3-0.5c-0.2-0.4-0.5-0.9-0.9-1.5
		c-0.2-0.3-0.4-0.6-0.6-0.9c-0.1-0.1-0.1-0.2-0.2-0.3c-2.8,6.1-5.5,12-8.2,17.8c-1.8,3.9-3.5,7.7-5.3,11.6
		c-2.6,5.7-5.2,11.4-7.9,17.1c-3.9,8.4-7.9,16.7-11.9,25.1c-1.3,2.8-2.6,5.6-3.9,8.4c-0.1,0.2-0.2,0.4-0.3,0.5c0,0,0,0,0,0
		c-0.3,0.5-0.6,1-0.9,1.4c-0.7,0.8-1.4,1.5-2.3,1.9c-0.2,0.1-0.3,0.1-0.5,0.2c-0.2,0.1-0.3,0.1-0.5,0.2c-0.2,0-0.4,0.1-0.5,0.1
		c-0.6,0.1-1.2,0.2-1.9,0.2c-6.6-0.1-13.2-0.1-19.9,0c-2.6,0-5.1,0.1-7.7,0.1c-0.4,0-0.8,0-1.1,0c0,0,0,0,0,0c-0.1,0-0.2,0-0.4,0
		c-0.1,0-0.2,0-0.3,0c-3-0.3-3.7-1.9-1.7-5.6c13.5-25.7,26.9-51.4,40.3-77.2c0.7-1.2,1.3-2.4,1.9-3.7c0.3-0.5,0.6-1.1,0.9-1.6
		c0.2-0.4,0.4-0.7,0.6-1.1c0.3-0.4,0.5-0.9,0.8-1.3c3.1-4.9,6.8-9.8,7.9-14.9c0.1-0.4,0.2-0.9,0.2-1.3c0-0.2,0-0.5,0.1-0.7
		c0-0.4,0-0.8,0-1.2c0-1-0.2-1.9-0.4-2.8c0,0,0,0,0,0c-0.2-0.6-0.3-1.3-0.5-1.9c0,0,0,0,0,0c-0.3-0.9-0.7-1.9-1.2-2.8c0,0,0,0,0,0
		c-0.3-0.7-0.7-1.4-1-2l0,0c-0.2-0.4-0.4-0.7-0.6-1.1c-0.6-1-1.2-2-1.8-3c-0.7-1.1-1.4-2.3-2.1-3.4c-0.7-1.1-1.4-2.3-2-3.4v0
		c-0.3-0.4-0.5-0.9-0.7-1.3c-5-9.9-10-19.9-15-29.8c-5-9.9-10-19.9-15-29.8c-1.7-3.3-3.4-6.6-5-9.9c-0.8-1.7-1.7-3.3-2.5-5
		c-0.8-1.6-1.7-3.3-2.5-4.9c-0.1-0.2-0.2-0.4-0.3-0.6c-0.3-0.6-0.5-1.1-0.7-1.6c0,0,0,0,0,0c-0.1-0.2-0.1-0.3-0.1-0.5
		c0-0.1-0.1-0.2-0.1-0.3c0-0.1-0.1-0.3-0.1-0.4c0,0,0,0,0,0c0-0.3,0-0.5,0-0.7c0-0.1,0-0.3,0.1-0.4v0c0-0.1,0.1-0.3,0.2-0.4
		c0,0,0.1-0.1,0.2-0.2c0.1-0.1,0.3-0.2,0.4-0.3c0.1-0.1,0.3-0.1,0.5-0.2c0.8-0.2,1.8-0.3,3.3-0.3c7.1,0.2,14.3,0.2,21.4,0.1
		c2.4,0,4.9-0.1,7.3-0.1c0.6,0,1.2,0,1.7,0.1c0.2,0,0.3,0,0.5,0.1c0.2,0,0.4,0.1,0.6,0.1c0.2,0,0.4,0.1,0.5,0.2
		c0.4,0.1,0.8,0.3,1.2,0.6c0.4,0.2,0.7,0.5,1,0.8c0.3,0.3,0.5,0.5,0.7,0.9v0c0.1,0.1,0.1,0.2,0.2,0.2c0.1,0.2,0.2,0.3,0.3,0.5
		c0.3,0.5,0.6,1,0.8,1.5c1.4,3,2.8,6,4.1,9c2.8,6,5.6,12,8.4,18c4.2,9,8.5,17.9,12.7,26.9c2.8,6,5.7,12,8.5,17.9
		c0.2,0.5,0.4,1.2,0.7,1.7c0.1,0.1,0.1,0.2,0.3,0.4c0,0,0,0,0,0c0.1,0.1,0.2,0.2,0.3,0.3c0.1,0.1,0.3,0.2,0.4,0.2
		c0.1,0,0.3,0.1,0.5,0.1c0.1,0,0.2,0,0.3,0c0.1,0,0.2,0,0.3-0.1c0.2-0.1,0.4-0.2,0.5-0.3c0,0,0.1-0.1,0.1-0.1
		c0.1-0.1,0.2-0.3,0.3-0.4c0.2-0.3,0.3-0.5,0.4-0.8c0,0,0,0,0,0c0.1-0.2,0.2-0.5,0.2-0.7c0.1-0.2,0.1-0.3,0.2-0.5
		c5.6-11.9,11.1-23.7,16.7-35.6c5.6-11.9,11.1-23.8,16.6-35.7c1.1-2.3,2.3-3.8,4-4.6c0.2-0.1,0.5-0.2,0.7-0.3c0.3-0.1,0.6-0.2,1-0.3
		c0.2,0,0.4-0.1,0.6-0.1c0.6-0.1,1.2-0.1,1.9-0.1c0.5,0,1,0,1.5,0c0.5,0,1,0,1.5,0c3,0.1,6,0.1,9,0.1c1.5,0,3.1,0,4.6,0
		c1.9,0,3.8,0,5.7-0.1c1.1,0,2.3,0,3.4-0.1h0.5c0.5,0,1,0,1.4,0.1c1.1,0.1,1.9,0.4,2.3,0.8c0.1,0.1,0.2,0.2,0.3,0.4
		c0.1,0.2,0.1,0.5,0.1,0.8c0,0.2,0,0.4-0.1,0.6c0,0,0,0.1,0,0.2c0,0.1,0,0.2-0.1,0.3c-0.2,0.7-0.5,1.5-1,2.4
		c-4.2,7.9-8.3,15.7-12.4,23.6c-10.8,20.5-21.5,41.1-32.3,61.6c-1.6,3.1-3.3,6.2-4.9,9.4c-0.1,0.2-0.2,0.4-0.3,0.5
		c-0.1,0.2-0.2,0.4-0.2,0.5c-0.1,0.3-0.3,0.7-0.4,1c-0.6,1.9-0.3,3.5,0.8,5.6c17.5,33.7,35,67.4,52.4,101.1
		C246.1,329.9,246.7,331.7,245.9,332.6z M373,328.3c-21.3,7.3-43.1,9.7-65.2,3.5c-23.7-6.8-38.6-22.8-45.1-45.9
		c-6.7-24-6.7-48.2,4.2-71.2c10.7-22.6,28.5-36.6,53.3-41.5c7.6-1.5,15.4-2.5,23.1-1.8c4.2,0.4,5.1-1,5.1-4.8
		c-0.1-14.2,0.2-28.3-0.2-42.5c-0.1-5.2,1.5-6.4,6.4-6.2c7.9,0.4,16,0.5,23.9,0c5-0.3,5.9,1.5,5.9,6c-0.1,31.7-0.1,63.4-0.1,95.1h0
		v88.5c0,1.2,0.1,2.4,0.1,3.6C384.9,324,385,324.2,373,328.3z"/>
	<path class="st0" d="M245.9,332.6c-0.1,0.1-0.2,0.2-0.4,0.3c-0.3,0.2-0.7,0.3-1.1,0.4c-0.3,0-0.6,0.1-0.9,0.1c-0.2,0-0.4,0-0.5,0
		c-0.2,0-0.4,0-0.6,0c-0.7,0-1.4,0-2.3,0c-1.4,0-2.8,0-4.2,0c-2.2,0-4.4,0-6.6,0c-5.4,0-10.8,0-16.2,0.1c-0.9,0-1.7,0-2.4-0.1
		c-0.7-0.1-1.3-0.3-1.9-0.6c-0.4-0.2-0.7-0.4-1.1-0.6c-0.3-0.2-0.6-0.5-0.9-0.8c0,0-0.1-0.1-0.1-0.1c0,0-0.1-0.1-0.1-0.1
		c-0.1-0.1-0.1-0.1-0.2-0.2c-0.1-0.2-0.3-0.3-0.4-0.5c-0.5-0.7-1-1.5-1.5-2.5c-3-6.3-6-12.6-9-18.9c-3-6.3-6-12.6-9-18.8
		c-6-12.5-12.1-25.1-18.1-37.6c0-0.1-0.1-0.2-0.2-0.3c-0.1-0.2-0.2-0.4-0.3-0.5c-0.2-0.4-0.5-0.9-0.9-1.5c-0.2-0.3-0.4-0.6-0.6-0.9
		c-0.1-0.1-0.1-0.2-0.2-0.3c-2.8,6.1-5.5,12-8.2,17.8c-1.8,3.9-3.5,7.7-5.3,11.6c-2.6,5.7-5.2,11.4-7.9,17.1
		c-3.9,8.4-7.9,16.7-11.9,25.1c-1.3,2.8-2.6,5.6-3.9,8.4c-0.1,0.2-0.2,0.4-0.3,0.5c0,0,0,0,0,0c-0.3,0.5-0.6,1-0.9,1.4
		c-0.7,0.8-1.4,1.5-2.3,1.9c-0.2,0.1-0.3,0.1-0.5,0.2c-0.2,0.1-0.3,0.1-0.5,0.2c-0.2,0-0.4,0.1-0.5,0.1c-0.6,0.1-1.2,0.2-1.9,0.2
		c-6.6-0.1-13.2-0.1-19.9,0c-2.6,0-5.1,0.1-7.7,0.1c-0.4,0-0.8,0-1.1,0c0,0,0,0,0,0c-0.1,0-0.2,0-0.4,0c-0.1,0-0.2,0-0.3,0
		c-3-0.3-3.7-1.9-1.7-5.6c13.5-25.7,26.9-51.4,40.3-77.2c0.7-1.2,1.3-2.4,1.9-3.7c0.3-0.5,0.6-1.1,0.9-1.6c0.2-0.4,0.4-0.7,0.6-1.1
		c0.3-0.4,0.5-0.9,0.8-1.3c3.1-4.9,6.8-9.8,7.9-14.9c0.1-0.4,0.2-0.9,0.2-1.3c0-0.2,0-0.5,0.1-0.7c0-0.4,0-0.8,0-1.2
		c0-1-0.2-1.9-0.4-2.8c0,0,0,0,0,0c-0.1-0.6-0.3-1.3-0.5-1.9c0,0,0,0,0,0c-0.3-0.9-0.7-1.9-1.2-2.8c0,0,0,0,0,0
		c-0.3-0.7-0.7-1.4-1-2l0,0c-0.2-0.4-0.4-0.7-0.6-1.1c-0.6-1-1.2-2-1.8-3c-0.7-1.1-1.4-2.3-2.1-3.4c-0.7-1.1-1.4-2.3-2-3.4v0
		c-0.3-0.4-0.5-0.9-0.7-1.3c-5-9.9-10-19.9-15-29.8c-5-9.9-10-19.9-15-29.8c-1.7-3.3-3.4-6.6-5-9.9c-0.8-1.7-1.7-3.3-2.5-5
		c-0.8-1.6-1.7-3.3-2.5-4.9c-0.1-0.2-0.2-0.4-0.3-0.6c-0.3-0.6-0.5-1.1-0.7-1.6c0,0,0,0,0,0c-0.1-0.2-0.1-0.3-0.1-0.5
		c0-0.1-0.1-0.2-0.1-0.3c0-0.2-0.1-0.3-0.1-0.4c0,0,0,0,0,0c0-0.3,0-0.5,0-0.7c0-0.1,0-0.3,0.1-0.4v0c0.1-0.1,0.1-0.3,0.2-0.4
		c0,0,0.1-0.1,0.2-0.2c0.1-0.1,0.3-0.2,0.4-0.3c0.1-0.1,0.3-0.1,0.5-0.2c0.8-0.2,1.8-0.3,3.3-0.3c7.1,0.2,14.3,0.2,21.4,0.1
		c2.4,0,4.9-0.1,7.3-0.1c0.6,0,1.2,0,1.7,0.1c0.2,0,0.3,0,0.5,0.1c0.2,0,0.4,0.1,0.6,0.1c0.2,0,0.4,0.1,0.5,0.2
		c0.4,0.1,0.8,0.3,1.2,0.6c0.4,0.2,0.7,0.5,1,0.8c0.3,0.3,0.5,0.5,0.7,0.9v0c0.1,0.1,0.1,0.2,0.2,0.2c0.1,0.2,0.2,0.3,0.3,0.5
		c0.3,0.5,0.5,1,0.8,1.5c1.4,3,2.8,6,4.2,9c2.8,6,5.6,12,8.4,18c4.2,9,8.5,17.9,12.7,26.9c2.8,6,5.7,12,8.5,17.9
		c0.2,0.5,0.4,1.2,0.7,1.7c0.1,0.1,0.1,0.2,0.3,0.4c0,0,0,0,0,0c0.1,0.1,0.2,0.2,0.3,0.3c0.1,0.1,0.3,0.2,0.4,0.2
		c0.1,0,0.3,0.1,0.5,0.1c0.1,0,0.2,0,0.3,0c0.1,0,0.2,0,0.3-0.1c0.2-0.1,0.4-0.2,0.5-0.3c0,0,0.1-0.1,0.1-0.1
		c0.1-0.1,0.2-0.3,0.3-0.4c0.2-0.3,0.3-0.5,0.4-0.8c0,0,0,0,0,0c0.1-0.2,0.2-0.5,0.2-0.7c0.1-0.2,0.1-0.3,0.2-0.5
		c5.6-11.9,11.1-23.7,16.7-35.6c5.6-11.9,11.1-23.8,16.6-35.7c1.1-2.3,2.3-3.8,4-4.6c0.2-0.1,0.5-0.2,0.7-0.3c0.3-0.1,0.6-0.2,1-0.3
		c0.2,0,0.4-0.1,0.6-0.1c0.6-0.1,1.2-0.1,1.9-0.1c0.5,0,1,0,1.5,0c0.5,0,1,0,1.5,0c3,0.1,6,0.1,9,0.1c1.5,0,3.1,0,4.6,0
		c1.9,0,3.8,0,5.7-0.1c1.1,0,2.3,0,3.4-0.1h0.5c0.5,0,1,0,1.4,0.1c1.1,0.1,1.9,0.4,2.3,0.8c0.1,0.1,0.2,0.2,0.3,0.4
		c0.1,0.2,0.1,0.5,0.1,0.8c0,0.2,0,0.4-0.1,0.6c0,0,0,0.1,0,0.2c0,0.1,0,0.2-0.1,0.3c-0.2,0.7-0.5,1.5-1,2.4
		c-4.2,7.9-8.3,15.7-12.4,23.6c-10.8,20.5-21.5,41.1-32.3,61.6c-1.6,3.1-3.3,6.2-4.9,9.4c-0.1,0.2-0.2,0.4-0.3,0.5
		c-0.1,0.2-0.2,0.4-0.2,0.5c-0.1,0.3-0.3,0.7-0.4,1c-0.6,1.9-0.3,3.5,0.8,5.6c17.5,33.7,35,67.4,52.4,101.1
		C246.1,329.9,246.7,331.7,245.9,332.6z"/>
	<path class="st0" d="M384.5,311c0-1.2-0.1-2.4-0.1-3.6v-88.5h0c0-31.7,0-63.4,0.1-95.1c0-4.4-0.9-6.3-5.9-6c-7.9,0.5-16,0.5-23.9,0
		c-4.9-0.3-6.5,1-6.4,6.2c0.4,14.1,0,28.3,0.2,42.5c0.1,3.8-0.9,5.2-5.1,4.8c-7.8-0.7-15.5,0.3-23.1,1.8
		c-24.8,4.9-42.6,18.8-53.3,41.5c-10.9,23-10.9,47.3-4.2,71.2c6.5,23.1,21.4,39.1,45.1,45.9c22.1,6.3,43.8,3.8,65.2-3.5
		C385,324.2,384.9,324,384.5,311z M348.3,299.1c0,0.1,0,0.2,0,0.3c0,0.1,0,0.2,0,0.2c0,0.1,0,0.2-0.1,0.3c0,0.1,0,0.2-0.1,0.2
		c0,0.1,0,0.1-0.1,0.2c0,0.1,0,0.1-0.1,0.2c0,0,0,0,0,0c0,0.1-0.1,0.1-0.1,0.2s-0.1,0.1-0.1,0.2c0,0.1-0.1,0.1-0.1,0.2
		c-0.1,0.1-0.2,0.2-0.3,0.4c-0.1,0.1-0.1,0.1-0.2,0.2c-0.1,0.1-0.1,0.1-0.2,0.2c0,0-0.1,0.1-0.1,0.1c-0.1,0.1-0.3,0.2-0.4,0.3
		c-0.1,0.1-0.2,0.1-0.3,0.2c0,0-0.1,0-0.1,0c0,0-0.1,0-0.1,0c0,0-0.1,0-0.1,0.1c0,0,0,0-0.1,0c-0.1,0-0.1,0.1-0.2,0.1
		c-0.1,0-0.1,0-0.2,0.1c-0.1,0-0.2,0.1-0.3,0.1c-0.1,0-0.1,0-0.2,0c-0.2,0.1-0.4,0.1-0.5,0.1c0,0-0.1,0-0.1,0c-0.1,0-0.1,0-0.2,0.1
		c-0.1,0-0.2,0-0.3,0.1c-0.5,0.1-1,0.2-1.5,0.3c-0.5,0.1-1,0.2-1.5,0.2c-0.5,0.1-1,0.1-1.6,0.2c-0.4,0-0.8,0.1-1.2,0.1
		c0,0-0.1,0-0.1,0c-0.4,0-0.8,0.1-1.2,0.1c-0.4,0-0.8,0-1.3,0.1c-0.4,0-0.8,0-1.2,0c-0.2,0-0.4,0-0.7,0c-0.2,0-0.3,0-0.5,0
		c-0.3,0-0.7,0-1,0c-0.3,0-0.6,0-0.8,0c-0.3,0-0.6,0-0.8-0.1c0,0-0.1,0-0.1,0c-0.4,0-0.8-0.1-1.1-0.1c-0.2,0-0.4-0.1-0.7-0.1
		c-0.1,0-0.2,0-0.3,0c-0.1,0-0.3,0-0.4-0.1c-0.3,0-0.6-0.1-0.9-0.1c-0.3-0.1-0.7-0.1-1-0.2c-0.3-0.1-0.7-0.1-1-0.2
		c-0.3-0.1-0.6-0.2-0.9-0.2c-0.2,0-0.3-0.1-0.5-0.1c-0.3-0.1-0.7-0.2-1-0.3c-0.4-0.1-0.8-0.3-1.2-0.4l-0.6-0.2
		c-0.3-0.1-0.6-0.2-0.9-0.3c-0.3-0.1-0.6-0.2-0.9-0.4c-0.3-0.1-0.7-0.3-1-0.5c-0.1,0-0.1-0.1-0.2-0.1c-0.9-0.4-1.7-0.9-2.6-1.4
		c-0.2-0.1-0.3-0.2-0.5-0.3c-0.2-0.1-0.4-0.2-0.5-0.3c-0.2-0.1-0.4-0.2-0.5-0.4c-0.1-0.1-0.2-0.1-0.3-0.2c-0.1-0.1-0.2-0.1-0.3-0.2
		c-0.9-0.6-1.7-1.2-2.5-1.9c-0.1-0.1-0.3-0.2-0.4-0.4l-0.1-0.1c-0.1,0-0.1-0.1-0.2-0.1c-0.3-0.2-0.5-0.5-0.7-0.7
		c-0.1-0.1-0.1-0.1-0.2-0.2c-0.3-0.3-0.6-0.5-0.8-0.8c0,0,0,0-0.1-0.1c-0.4-0.4-0.7-0.7-1-1.1c-0.3-0.4-0.7-0.8-1-1.2
		c-0.3-0.4-0.6-0.8-0.9-1.2c-0.3-0.4-0.6-0.8-0.9-1.3c-0.1-0.1-0.2-0.3-0.3-0.4c-0.1-0.1-0.1-0.2-0.2-0.3c0-0.1-0.1-0.1-0.1-0.2
		c-0.1-0.1-0.2-0.2-0.2-0.4c-0.2-0.3-0.3-0.5-0.5-0.8c0,0,0-0.1-0.1-0.1c-0.1-0.1-0.1-0.2-0.2-0.4c0,0,0,0,0,0
		c-0.2-0.3-0.3-0.6-0.5-0.9c-0.3-0.5-0.5-1-0.8-1.5c-0.1-0.1-0.2-0.3-0.2-0.4c-0.1-0.2-0.2-0.4-0.2-0.5c0,0,0-0.1-0.1-0.2
		c-0.1-0.3-0.3-0.6-0.4-1c0-0.1-0.1-0.2-0.1-0.3c-0.1-0.3-0.3-0.7-0.4-1c-0.1-0.2-0.2-0.5-0.3-0.7c-0.1-0.3-0.2-0.6-0.3-0.9
		c-0.2-0.4-0.3-0.9-0.4-1.3c-0.1-0.3-0.2-0.5-0.2-0.8c0-0.2-0.1-0.3-0.1-0.5c-0.1-0.4-0.3-0.9-0.4-1.4c-0.1-0.5-0.2-1-0.4-1.4
		c-0.1-0.3-0.1-0.5-0.2-0.8c-0.1-0.6-0.3-1.2-0.4-1.8c0-0.1,0-0.2-0.1-0.3c0,0,0-0.1,0-0.1c0,0,0-0.1,0-0.1
		c-0.2-0.9-0.4-1.7-0.5-2.6c-0.3-1.6-0.6-3.2-0.8-4.8c0-0.3-0.1-0.6-0.1-1c-0.1-0.6-0.1-1.3-0.2-1.9c0-0.3-0.1-0.6-0.1-1
		c-0.1-0.8-0.1-1.6-0.2-2.4c0-0.1,0-0.3,0-0.4c0-0.2,0-0.4,0-0.6c0-0.2,0-0.3,0-0.5c0-0.5,0-1,0-1.5c0-0.1,0-0.3,0-0.4
		c0-0.4,0-0.8,0-1.1c0-0.6,0-1.2,0-1.7c0-0.2,0-0.5,0-0.7c0-0.1,0-0.1,0-0.2c0-0.2,0-0.3,0-0.5c0-0.4,0-0.8,0.1-1.1
		c0-0.1,0-0.2,0-0.4c0-0.5,0.1-0.9,0.1-1.4c0-0.2,0-0.5,0.1-0.7c0-0.2,0-0.5,0.1-0.7c0-0.1,0-0.3,0-0.4c0.1-0.6,0.1-1.2,0.2-1.7
		c0-0.3,0.1-0.6,0.1-1c0.1-0.5,0.2-1,0.2-1.5c0-0.1,0-0.2,0.1-0.4c0-0.1,0-0.1,0-0.2c0.1-0.4,0.2-0.9,0.3-1.3
		c0.1-0.6,0.2-1.2,0.4-1.7c0.1-0.6,0.3-1.1,0.4-1.7c0.1-0.2,0.1-0.4,0.2-0.6c0-0.1,0.1-0.2,0.1-0.3c0.1-0.3,0.1-0.5,0.2-0.8
		c0.1-0.5,0.3-1,0.4-1.4c0.1-0.4,0.2-0.8,0.4-1.1c0.1-0.3,0.2-0.6,0.3-0.9c0.2-0.6,0.4-1.1,0.6-1.7c0.4-1.1,0.9-2.3,1.4-3.4
		c0.2-0.4,0.3-0.7,0.5-1.1c0.1-0.2,0.2-0.3,0.2-0.5c0.8-1.5,1.6-3,2.5-4.4c0.2-0.2,0.3-0.5,0.5-0.7c0.1-0.2,0.3-0.4,0.5-0.6
		c0.4-0.5,0.7-1,1.1-1.4c0.1-0.2,0.3-0.4,0.4-0.6c0.1-0.2,0.3-0.4,0.5-0.5c0.4-0.5,0.9-1,1.3-1.5c0.1-0.1,0.3-0.3,0.4-0.4
		c0,0,0,0,0,0c0.1-0.1,0.2-0.2,0.3-0.3c0.3-0.3,0.6-0.6,0.9-0.9c0.3-0.3,0.6-0.6,1-0.9c0,0,0.1-0.1,0.1-0.1c0.2-0.2,0.4-0.4,0.6-0.5
		c0,0,0,0,0.1,0c0,0,0.1-0.1,0.1-0.1c0.1-0.1,0.2-0.1,0.2-0.2c0.2-0.1,0.3-0.2,0.5-0.4c0.1-0.1,0.3-0.2,0.4-0.3c0,0,0,0,0,0
		c0,0,0.1-0.1,0.1-0.1c0.1-0.1,0.2-0.2,0.3-0.2c0.1-0.1,0.2-0.1,0.2-0.2c0.2-0.1,0.4-0.3,0.6-0.4c0.4-0.3,0.8-0.5,1.2-0.8
		c0.4-0.3,0.8-0.5,1.2-0.7c0.2-0.1,0.4-0.2,0.6-0.3c0.3-0.1,0.5-0.3,0.8-0.4c0.2-0.1,0.5-0.3,0.7-0.4c0.3-0.1,0.6-0.3,0.8-0.4
		c0.3-0.1,0.5-0.3,0.8-0.4c0.8-0.4,1.7-0.7,2.6-1.1c0.9-0.3,1.7-0.6,2.6-0.9c0,0,0,0,0,0c0.4-0.1,0.9-0.3,1.3-0.4
		c1.6-0.4,3.2-0.7,4.9-0.9c0.5-0.1,0.9-0.1,1.4-0.2c0.7-0.1,1.4-0.1,2.1-0.1c0.2,0,0.4,0,0.6,0c0.3,0,0.6,0,0.9,0
		c2.7,0,5.5,0.3,8.3,0.8c0.1,0,0.2,0,0.3,0.1c0.1,0,0.2,0,0.3,0.1c0.1,0,0.1,0,0.2,0c0,0,0,0,0.1,0c0,0,0.1,0,0.1,0
		c0.1,0,0.2,0.1,0.3,0.1c0.1,0,0.2,0.1,0.2,0.1c0.1,0,0.1,0.1,0.2,0.1c0.1,0,0.2,0.1,0.2,0.1c0.3,0.1,0.5,0.3,0.7,0.5
		c0.1,0.1,0.2,0.1,0.2,0.2c0.1,0.1,0.1,0.1,0.2,0.2c0.1,0.1,0.1,0.2,0.2,0.3c0,0.1,0.1,0.1,0.1,0.2c0,0,0,0,0,0
		c0.1,0.2,0.2,0.3,0.2,0.5c0,0.1,0.1,0.3,0.1,0.4c0,0.1,0,0.1,0,0.2c0,0,0,0,0,0c0,0,0,0.1,0,0.1c0,0.1,0,0.1,0,0.2c0,0,0,0,0,0
		c0,0.1,0,0.1,0,0.2c0,0,0,0,0,0c0,0,0,0,0,0.1c0,0,0,0,0,0.1c0,0,0,0.1,0,0.1c0,0,0,0,0,0c0,0,0,0,0,0c0,0.5,0,0.9,0,1.4v0.8
		c0,10,0,19.9,0,29.9c0,5,0,10,0,15v0h0c0,3.4,0,6.8,0,10.2v1.8c0,2.8,0,5.6,0,8.4v5.2c0,2.9,0,5.9,0,8.8c0,3.3,0,6.5,0.1,9.7
		c0,0.3,0,0.6,0,0.9c0,0.2,0,0.5,0,0.7C348.3,298.9,348.3,299,348.3,299.1z"/>
	<path class="st1" d="M348.3,253c0,14.7-0.1,29.5,0.1,44.2c0,3.6-1,5.2-4.8,5.9c-22.5,4.3-40.1-6.1-45.9-28.2
		c-4.4-16.9-4.6-33.9,2.7-50.3c7.7-17.4,25.5-26.2,44.2-22.6c4,0.8,3.8,3.2,3.8,6.1C348.3,223.1,348.3,238,348.3,253
		C348.3,253,348.3,253,348.3,253z"/>
</g>
</svg>
